# xmcd
#
# Track frame offsets:
#	150
#	16120
#	34841
#	50047
#	75368
#	93134
#	107772
#	124171
#	140707
#	160027
#	178581
#	196449
#	211036
#	230617
#
# Disc length: 3481 seconds
#
# Revision: 1
# Processed by: cddbd v1.5.2PL0 Copyright (c) Steve Scherf et al.
# Submitted via: audiograbber 1.82.01
#
DISCID=b10d970e
DTITLE=Mysterio - Ride on time
DYEAR=1900
DGENRE=
TTITLE0=I was made for lovin' you (Video Edit)
TTITLE1=Innocent
TTITLE2=Fading like a flower
TTITLE3=Follow me
TTITLE4=Into forever (feat. Peter Schilling)
TTITLE5=Our hearts
TTITLE6=Everlasting love 2005
TTITLE7=Children of the world
TTITLE8=What music does
TTITLE9=Sunlight
TTITLE10=There is a star
TTITLE11=Take me to the stars
TTITLE12=Dancing
TTITLE13=Fading like a flower (East Rockers Radio Remix)
EXTD=
EXTT0=
EXTT1=
EXTT2=
EXTT3=
EXTT4=
EXTT5=
EXTT6=
EXTT7=
EXTT8=
EXTT9=
EXTT10=
EXTT11=
EXTT12=
EXTT13=
PLAYORDER=
